# Blender 4.2.1 LTS
# www.blender.org
o Asteroid_2b
v 0.268420 -0.064669 0.989136
v 0.599496 -0.211010 0.782378
v 0.406766 0.403784 0.519163
v -0.558407 -0.546020 0.643479
v 1.082853 -0.229778 0.337549
v 0.483767 -0.704171 0.141330
v 0.914179 -0.359409 -0.003238
v -0.034881 -0.813210 0.220480
v -0.245675 0.612503 -0.442084
v 0.618526 0.571754 -0.494682
v 0.079437 -0.045082 -0.999553
v -0.030815 0.019741 0.892282
v 0.528126 0.289172 0.837108
v 0.142812 0.539657 0.587340
v -0.793980 0.183893 0.490071
v -0.415039 -0.691101 0.215689
v 0.407303 -0.580708 0.557377
v -0.630161 0.618623 0.066343
v 1.132675 0.131710 -0.073876
v -0.304224 0.822441 0.068987
v -0.667829 0.378078 -0.562529
v 0.412161 0.333481 -0.524213
v -0.180072 0.103696 -0.651768
v 0.385616 -0.099403 -0.793759
v -0.345368 -0.290613 -0.807068
v 0.332066 0.400244 -0.788018
v -0.119735 -0.448691 -0.266431
v -0.091489 -0.555747 -0.593477
v 0.081678 -0.795814 -0.054121
v -0.467014 -0.039561 -0.901559
v -0.943750 0.444617 0.066103
v -0.647014 0.552179 -0.352297
v 0.656066 0.679619 0.006083
v 0.317896 0.717948 0.048418
v -0.178331 0.392954 0.320537
v -0.504810 0.420861 0.529527
v -0.419753 0.285171 0.849810
v -0.213385 -0.140206 0.597627
v -1.091935 -0.118245 0.321093
v -0.853395 -0.572263 0.155612
v -0.868762 -0.341321 -0.488756
v -0.596378 -0.482789 -0.299295
v -0.849829 0.405575 0.344187
v -1.136706 0.190146 -0.063124
v -0.894655 0.023506 -0.028241
v -1.080325 0.028570 -0.418225
v -0.868050 -0.447769 -0.054727
v -0.454738 -0.562315 -0.484108
v -0.659499 -0.152232 0.801495
v 0.247262 0.643763 -0.483131
v -0.005424 -0.507427 0.706081
v 0.813411 0.185204 -0.298859
v 0.844396 0.458515 -0.299499
v 0.310059 -0.469517 -0.615806
v 0.602263 -0.614440 -0.320795
v 0.495017 -0.067398 -0.376023
v 0.912264 -0.385177 -0.318195
v 0.922810 0.066154 -0.592572
v 0.894348 -0.548955 0.033626
v 0.826168 -0.037640 0.554126
v 0.950836 0.424930 0.278153
v 0.919875 0.136144 0.193434
v 0.523550 -0.444088 0.345002
v 0.050480 -0.507767 0.393874
vn 0.0472 -0.0859 0.9952
vn 0.5224 -0.3427 0.7808
vn 0.2104 0.9108 0.3553
vn -0.2835 -0.6299 0.7231
vn 0.8776 -0.2846 0.3857
vn 0.4018 -0.8890 0.2196
vn 0.9507 -0.2661 -0.1595
vn -0.0369 -0.9753 0.2179
vn -0.1690 0.7451 -0.6452
vn 0.3331 0.7578 -0.5611
vn 0.0986 -0.0867 -0.9913
vn -0.2067 -0.0058 0.9784
vn 0.3614 0.5095 0.7809
vn 0.0680 0.8292 0.5548
vn -0.6822 0.3797 0.6249
vn -0.2860 -0.9576 0.0340
vn 0.3044 -0.8151 0.4929
vn -0.4820 0.8629 0.1519
vn 0.9670 0.1877 -0.1724
vn -0.1914 0.9642 0.1837
vn -0.3846 0.5937 -0.7068
vn -0.0283 0.9175 -0.3968
vn -0.2745 0.7676 -0.5792
vn 0.5610 -0.5567 -0.6127
vn -0.2906 -0.5747 -0.7650
vn 0.1641 0.6295 -0.7595
vn -0.1186 -0.8741 -0.4710
vn -0.0951 -0.8821 -0.4613
vn -0.0079 -0.9730 -0.2308
vn -0.3423 0.1144 -0.9326
vn -0.7015 0.7107 0.0517
vn -0.4905 0.7749 -0.3986
vn 0.3809 0.9198 0.0939
vn 0.1828 0.9694 0.1638
vn -0.2022 0.8489 0.4884
vn -0.2928 0.8227 0.4872
vn -0.2853 0.4957 0.8203
vn -0.1504 -0.4681 0.8708
vn -0.9653 -0.0916 0.2446
vn -0.6417 -0.7661 0.0366
vn -0.7026 -0.5723 -0.4229
vn -0.6260 -0.6997 -0.3444
vn -0.6219 0.5619 0.5454
vn -0.9930 0.0856 -0.0817
vn -0.8328 -0.5210 -0.1871
vn -0.9476 -0.0451 -0.3162
vn -0.9738 -0.1879 -0.1284
vn -0.2492 -0.8665 -0.4325
vn -0.3969 -0.1922 0.8975
vn 0.1341 0.8545 -0.5019
vn -0.0600 -0.6541 0.7541
vn 0.8887 0.3587 -0.2855
vn 0.7918 0.5393 -0.2866
vn 0.4578 -0.5655 -0.6860
vn 0.4000 -0.7116 -0.5776
vn 0.4553 -0.5916 -0.6653
vn 0.6357 -0.4869 -0.5989
vn 0.7163 -0.0774 -0.6935
vn 0.6985 -0.7079 0.1046
vn 0.7669 0.1462 0.6249
vn 0.7539 0.5580 0.3469
vn 0.2712 -0.0097 0.9625
vn 0.5945 -0.7827 0.1845
vn 0.2414 -0.8015 0.5471
vt 0.361807 0.179947
vt 0.325960 0.079832
vt 0.436003 0.103742
vt 0.497736 0.153165
vt 0.542842 0.056566
vt 0.486674 0.437131
vt 0.530362 0.405439
vt 0.597185 0.501757
vt 0.549298 0.251643
vt 0.536307 0.364812
vt 0.500278 0.282390
vt 0.710633 0.344451
vt 0.624923 0.268188
vt 0.697742 0.247332
vt 0.800219 0.537007
vt 0.697499 0.492268
vt 0.737859 0.442199
vt 0.797153 0.266313
vt 0.856793 0.354961
vt 0.775346 0.376482
vt 0.210234 0.609554
vt 0.257324 0.666467
vt 0.158714 0.660928
vt 0.215490 0.234609
vt 0.093369 0.150288
vt 0.218995 0.157917
vt 0.494969 0.733274
vt 0.553065 0.810298
vt 0.460156 0.767759
vt 0.703851 0.030350
vt 0.597845 0.086977
vt 0.628454 0.019721
vt 0.418320 0.526560
vt 0.386599 0.581265
vt 0.394905 0.479570
vt 0.899144 0.005310
vt 0.945842 0.026767
vt 0.916637 0.067050
vt 0.755031 0.115225
vt 0.781797 0.196026
vt 0.682636 0.200173
vt 0.341108 0.839931
vt 0.375596 0.757877
vt 0.435058 0.804785
vt 0.301510 0.774809
vt 0.387208 0.718374
vt 0.432651 0.364784
vt 0.303254 0.304286
vt 0.439766 0.262826
vt 0.342492 0.209350
vt 0.421691 0.205689
vt 0.497681 0.231029
vt 0.720589 0.647512
vt 0.753348 0.613537
vt 0.763371 0.672522
vt 0.850918 0.860954
vt 0.938969 0.849731
vt 0.918360 0.913454
vt 0.004647 0.270350
vt 0.083244 0.241468
vt 0.093708 0.359638
vt 0.440668 0.037037
vt 0.547247 0.890655
vt 0.485036 0.900010
vt 0.537557 0.835232
vt 0.394476 0.628854
vt 0.299575 0.638302
vt 0.308212 0.589969
vt 0.020587 0.590331
vt 0.149831 0.604671
vt 0.037280 0.666398
vt 0.774454 0.233379
vt 0.807941 0.221107
vt 0.298358 0.379183
vt 0.079882 0.534360
vt 0.044607 0.468506
vt 0.704763 0.694888
vt 0.569313 0.689251
vt 0.697577 0.610121
vt 0.541279 0.623143
vt 0.601444 0.606940
vt 0.712326 0.759850
vt 0.757266 0.787519
vt 0.732161 0.832069
vt 0.760501 0.706746
vt 0.840080 0.745236
vt 0.954958 0.301766
vt 0.886970 0.304518
vt 0.916322 0.265896
vt 0.439241 0.928168
vt 0.384587 0.922161
vt 0.412047 0.865550
vt 0.140244 0.473937
vt 0.544442 0.712842
vt 0.032214 0.440251
vt 0.008869 0.396832
vt 0.064098 0.413417
vt 0.482283 0.706551
vt 0.417363 0.703045
vt 0.896626 0.680428
vt 0.909010 0.709139
vt 0.893423 0.747736
vt 0.630539 0.871168
vt 0.699562 0.857663
vt 0.688268 0.933563
vt 0.032471 0.744846
vt 0.074662 0.783924
vt 0.020322 0.796424
vt 0.056978 0.886793
vt 0.843502 0.430940
vt 0.477004 0.554544
vt 0.416665 0.585661
vt 0.461484 0.582617
vt 0.427941 0.496670
vt 0.790085 0.591767
vt 0.674746 0.574562
vt 0.653161 0.489847
vt 0.931405 0.503219
vt 0.970665 0.559538
vt 0.931316 0.543695
vt 0.475983 0.601304
vt 0.496399 0.654971
vt 0.234212 0.457466
vt 0.251753 0.571186
vt 0.191062 0.542347
vt 0.247831 0.906588
vt 0.285340 0.892937
vt 0.324176 0.902621
vt 0.267136 0.846977
vt 0.319836 0.669044
vt 0.210363 0.983542
vt 0.177577 0.968401
vt 0.238460 0.939408
vt 0.186383 0.433337
vt 0.128336 0.425213
vt 0.262055 0.732275
vt 0.155400 0.694093
vt 0.317394 0.465700
vt 0.797333 0.467849
vt 0.896416 0.613113
vt 0.819375 0.645792
vt 0.849370 0.550896
vt 0.266957 0.276978
vt 0.211179 0.359083
vt 0.988135 0.614902
vt 0.948753 0.629427
vt 0.941034 0.595523
vt 0.892550 0.547138
vt 0.919381 0.486257
vt 0.896624 0.441389
vt 0.935846 0.398633
vt 0.882281 0.368582
vt 0.539471 0.113463
vt 0.608305 0.210576
vt 0.178260 0.101235
vt 0.847461 0.923938
vt 0.134416 0.668941
vt 0.157401 0.897939
vt 0.111486 0.822332
vt 0.203262 0.804483
vt 0.219884 0.893879
vt 0.568914 0.939823
vt 0.389859 0.043823
vt 0.604573 0.347920
vt 0.517306 0.029696
vt 0.025504 0.223368
vt 0.006207 0.161109
vt 0.042447 0.150730
vt 0.145222 0.756457
vt 0.234883 0.776222
vt 0.285088 0.253337
vt 0.293450 0.231597
vt 0.839471 0.810883
vt 0.926016 0.343637
vt 0.075537 0.397305
vt 0.601667 0.750767
vt 0.650227 0.718178
vt 0.655708 0.777536
vt 0.994368 0.656992
vt 0.952083 0.664367
vt 0.957144 0.707753
vt 0.119346 0.040265
vt 0.034163 0.051233
vt 0.770405 0.911594
vt 0.769242 0.933988
vt 0.851567 0.271878
vt 0.113126 0.944008
vt 0.054587 0.930419
vt 0.086775 0.894972
vt 0.511547 0.687256
vt 0.495110 0.575431
vt 0.537421 0.549173
vt 0.871843 0.074546
vt 0.832486 0.093582
vt 0.784384 0.082446
vt 0.837061 0.159287
vt 0.921427 0.196141
vt 0.954556 0.200026
vt 0.917712 0.237776
s 1
f 12/1/12 14/2/14 37/3/37
f 49/4/49 37/3/37 15/5/15
f 2/6/2 1/7/1 17/8/17
f 15/9/15 44/10/44 39/11/39
f 18/12/18 43/13/43 36/14/36
f 19/15/19 7/16/7 57/17/57
f 55/18/55 59/19/59 6/20/6
f 29/21/29 16/22/16 48/23/48
f 50/24/50 33/25/33 10/26/10
f 10/27/10 58/28/58 26/29/26
f 54/30/54 11/31/11 24/32/24
f 54/33/54 55/34/55 28/35/28
f 28/36/28 29/37/29 27/38/27
f 28/39/28 48/40/48 25/41/25
f 9/42/9 23/43/23 21/44/21
f 26/45/26 30/46/30 23/43/23
f 30/47/30 46/48/46 21/49/21
f 31/50/31 21/49/21 46/48/46
f 32/51/32 9/52/9 21/49/21
f 29/53/29 8/54/8 16/55/16
f 8/56/8 51/57/51 4/58/4
f 14/59/14 34/60/34 20/61/20
f 36/62/36 37/3/37 14/2/14
f 35/63/35 20/64/20 36/65/36
f 13/66/13 12/67/12 1/68/1
f 12/69/12 51/70/51 1/71/1
f 41/72/41 48/40/48 42/73/42
f 41/74/41 46/48/46 30/47/30
f 12/1/12 37/3/37 49/4/49
f 38/75/38 12/69/12 49/76/49
f 49/77/49 39/78/39 4/79/4
f 39/78/39 47/80/47 40/81/40
f 44/82/44 45/83/45 39/84/39
f 45/83/45 46/85/46 41/86/41
f 30/87/30 48/88/48 41/89/41
f 16/90/16 4/91/4 40/92/40
f 4/93/4 38/75/38 49/76/49
f 34/60/34 50/24/50 20/61/20
f 58/28/58 10/27/10 53/94/53
f 6/95/6 29/96/29 55/97/55
f 33/98/33 3/99/3 13/66/13
f 58/100/58 52/101/52 19/102/19
f 24/103/24 56/104/56 54/105/54
f 24/106/24 58/107/58 56/108/56
f 58/107/58 57/109/57 56/108/56
f 63/110/63 6/20/6 59/19/59
f 2/6/2 17/8/17 5/111/5
f 2/112/2 60/113/60 13/66/13
f 2/6/2 5/111/5 60/114/60
f 61/115/61 5/116/5 19/15/19
f 59/117/59 7/16/7 5/116/5
f 59/118/59 57/119/57 7/120/7
f 19/15/19 5/116/5 7/16/7
f 60/121/60 61/122/61 13/66/13
f 8/123/8 6/124/6 17/125/17
f 8/126/8 64/127/64 51/128/51
f 17/129/17 64/127/64 8/126/8
f 64/127/64 17/129/17 51/128/51
f 12/67/12 13/66/13 14/130/14
f 3/131/3 14/132/14 13/133/13
f 40/81/40 4/79/4 39/78/39
f 20/61/20 32/134/32 18/135/18
f 40/136/40 42/137/42 48/23/48
f 29/138/29 28/35/28 55/34/55
f 57/17/57 58/139/58 19/15/19
f 11/140/11 26/141/26 58/142/58
f 50/24/50 26/143/26 9/144/9
f 50/145/50 22/146/22 26/147/26
f 11/140/11 58/142/58 24/148/24
f 54/30/54 28/39/28 11/31/11
f 28/149/28 27/150/27 48/151/48
f 11/31/11 28/39/28 25/41/25
f 29/152/29 48/151/48 27/150/27
f 30/46/30 21/44/21 23/43/23
f 26/153/26 11/31/11 30/154/30
f 26/45/26 23/43/23 9/42/9
f 30/154/30 11/31/11 25/41/25
f 32/51/32 21/49/21 31/50/31
f 33/25/33 53/155/53 10/26/10
f 29/138/29 6/124/6 8/123/8
f 8/56/8 4/58/4 16/156/16
f 17/157/17 1/71/1 51/70/51
f 3/158/3 33/159/33 34/160/34
f 14/161/14 3/158/3 34/160/34
f 20/64/20 35/63/35 14/162/14
f 35/163/35 36/62/36 14/2/14
f 31/164/31 43/13/43 18/12/18
f 43/165/43 15/5/15 36/62/36
f 36/62/36 15/5/15 37/3/37
f 51/70/51 12/69/12 38/75/38
f 15/166/15 39/167/39 49/168/49
f 41/169/41 42/137/42 40/136/40
f 41/169/41 40/136/40 47/170/47
f 44/171/44 31/172/31 46/48/46
f 43/13/43 44/10/44 15/9/15
f 43/13/43 31/164/31 44/10/44
f 45/83/45 47/173/47 39/84/39
f 44/82/44 46/85/46 45/83/45
f 45/83/45 41/86/41 47/173/47
f 30/87/30 25/174/25 48/88/48
f 38/75/38 4/93/4 51/70/51
f 18/135/18 36/175/36 20/61/20
f 34/60/34 33/25/33 50/24/50
f 20/61/20 9/144/9 32/134/32
f 31/176/31 18/177/18 32/178/32
f 20/61/20 50/24/50 9/144/9
f 10/179/10 22/146/22 50/145/50
f 10/180/10 26/147/26 22/146/22
f 52/101/52 53/181/53 19/102/19
f 33/25/33 19/182/19 53/155/53
f 19/182/19 33/25/33 61/183/61
f 52/101/52 58/100/58 53/181/53
f 56/104/56 57/184/57 55/185/55
f 55/185/55 54/105/54 56/104/56
f 59/19/59 55/18/55 57/186/57
f 2/187/2 13/188/13 1/189/1
f 13/66/13 61/122/61 33/190/33
f 59/191/59 5/111/5 63/192/63
f 61/193/61 62/194/62 5/195/5
f 5/195/5 62/194/62 60/196/60
f 61/193/61 60/196/60 62/194/62
f 63/197/63 17/198/17 6/199/6
f 16/22/16 40/136/40 48/23/48
f 63/192/63 5/111/5 17/8/17
