# Blender 4.2.1 LTS
# www.blender.org
o Asteroid_2b
v 0.266780 0.478272 0.544448
v 0.250253 0.544983 -0.599142
v 0.347985 0.025535 0.930152
v 0.815070 -0.331384 0.552580
v 1.015461 0.298427 0.009301
v -0.507136 0.767057 0.075570
v 0.456158 -0.127682 -0.507665
v -0.241890 -0.444011 -0.608995
v -0.086932 -0.810364 0.108113
v -0.222628 -0.088145 -1.013643
v -0.908936 0.388645 0.355789
v -1.019322 0.220945 -0.448668
v 0.516971 0.707920 -0.048161
v -0.383758 0.359674 0.683757
v -0.771769 -0.454374 -0.370481
v -0.960942 -0.382921 0.310150
v -0.632479 -0.119911 0.744083
v 0.922810 0.066154 -0.592572
v 0.831997 -0.561102 -0.139909
v -0.269588 -0.581263 0.592879
vn 0.3204 0.7441 0.5863
vn 0.1539 0.7462 -0.6477
vn 0.2906 0.0981 0.9518
vn 0.7030 -0.4051 0.5846
vn 0.8956 0.4309 0.1105
vn -0.2940 0.9550 0.0393
vn 0.2734 -0.6760 -0.6844
vn 0.0129 -0.7936 -0.6083
vn -0.0232 -0.9994 0.0243
vn -0.0821 -0.1359 -0.9873
vn -0.7719 0.4804 0.4164
vn -0.8241 0.2909 -0.4861
vn 0.4185 0.9082 0.0110
vn -0.2222 0.5718 0.7897
vn -0.6045 -0.6802 -0.4146
vn -0.8159 -0.4999 0.2906
vn -0.4779 -0.1217 0.8700
vn 0.7261 0.0156 -0.6875
vn 0.6406 -0.7277 -0.2451
vn -0.1420 -0.7489 0.6473
vt 0.361807 0.179947
vt 0.325960 0.079832
vt 0.428676 0.076190
vt 0.497736 0.153165
vt 0.525761 0.038593
vt 0.594299 0.284592
vt 0.536307 0.364812
vt 0.500278 0.282390
vt 0.710633 0.344451
vt 0.697742 0.247332
vt 0.418320 0.526560
vt 0.386599 0.581265
vt 0.394905 0.479570
vt 0.004647 0.270350
vt 0.089424 0.185813
vt 0.111845 0.393986
vt 0.298358 0.379183
vt 0.330950 0.277325
vt 0.432651 0.364784
vt 0.704763 0.694888
vt 0.577872 0.642646
vt 0.697577 0.610121
vt 0.798959 0.815319
vt 0.749736 0.718612
vt 0.840080 0.745236
vt 0.439241 0.928168
vt 0.384587 0.922161
vt 0.412047 0.865550
vt 0.216197 0.224452
vt 0.553065 0.810298
vt 0.486471 0.741692
vt 0.544442 0.712842
vt 0.482283 0.706551
vt 0.417363 0.703045
vt 0.343746 0.608494
vt 0.074662 0.783924
vt 0.056978 0.886793
vt 0.024141 0.780207
vt 0.795034 0.565026
vt 0.674746 0.574562
vt 0.706070 0.465062
vt 0.475983 0.601304
vt 0.496399 0.654971
vt 0.276696 0.461672
vt 0.251753 0.571186
vt 0.191062 0.542347
vt 0.267136 0.846977
vt 0.319423 0.901436
vt 0.247831 0.906588
vt 0.797333 0.467849
vt 0.896416 0.613113
vt 0.819375 0.645792
vt 0.849370 0.550896
vt 0.892550 0.547138
vt 0.646227 0.022227
vt 0.714885 0.162332
vt 0.603391 0.152515
vt 0.882281 0.368582
vt 0.935846 0.398633
vt 0.913661 0.474979
vt 0.387208 0.718374
vt 0.435058 0.804785
vt 0.333813 0.823492
vt 0.090705 0.061343
vt 0.134416 0.668941
vt 0.032222 0.643348
vt 0.145278 0.542576
vt 0.485036 0.900010
vt 0.539338 0.845421
vt 0.568914 0.939823
vt 0.048145 0.475111
vt 0.025504 0.223368
vt 0.006207 0.161109
vt 0.042447 0.150730
vt 0.954958 0.301766
vt 0.926016 0.343637
vt 0.904725 0.281155
vt 0.186383 0.433337
vt 0.601667 0.750767
vt 0.650227 0.718178
vt 0.655708 0.777536
vt 0.511547 0.687256
vt 0.233273 0.637399
vt 0.253971 0.745351
vt 0.149968 0.724566
s 1
f 3/1/3 1/2/1 14/3/14
f 17/4/17 14/3/14 11/5/11
f 11/6/11 12/7/12 16/8/16
f 6/9/6 11/6/11 14/10/14
f 7/11/7 19/12/19 8/13/8
f 1/14/1 13/15/13 6/16/6
f 15/17/15 12/18/12 10/19/10
f 3/1/3 14/3/14 17/4/17
f 17/20/17 16/21/16 20/22/20
f 16/23/16 12/24/12 15/25/15
f 9/26/9 20/27/20 16/28/16
f 13/15/13 2/29/2 6/16/6
f 18/30/18 2/31/2 5/32/5
f 13/33/13 1/34/1 3/35/3
f 18/36/18 19/37/19 7/38/7
f 5/39/5 4/40/4 19/41/19
f 4/42/4 5/43/5 3/35/3
f 9/44/9 19/45/19 4/46/4
f 4/47/4 20/48/20 9/49/9
f 9/44/9 8/13/8 19/12/19
f 19/41/19 18/50/18 5/39/5
f 10/51/10 2/52/2 18/53/18
f 10/51/10 18/53/18 7/54/7
f 7/55/7 8/56/8 10/57/10
f 9/58/9 15/59/15 8/60/8
f 10/61/10 12/62/12 2/63/2
f 13/15/13 5/64/5 2/29/2
f 4/65/4 3/66/3 20/67/20
f 6/68/6 14/69/14 1/70/1
f 20/67/20 3/66/3 17/71/17
f 11/72/11 16/73/16 17/74/17
f 10/75/10 8/76/8 15/77/15
f 6/16/6 2/29/2 12/78/12
f 11/79/11 6/80/6 12/81/12
f 3/35/3 5/43/5 13/82/13
f 9/83/9 16/84/16 15/85/15
